HIERARCHY
ROOT root
{
	OFFSET 0.000000 0.000000 0.000000
	CHANNELS 6 Xposition Yposition Zposition Zrotation Yrotation Xrotation
	JOINT lhip
	{
		OFFSET 0.058581 -0.082280 -0.017664
		CHANNELS 3 Zrotation Yrotation Xrotation
		JOINT lknee
		{
			OFFSET 0.043451 -0.386469 0.008037
			CHANNELS 3 Zrotation Yrotation Xrotation
			JOINT lankle
			{
				OFFSET -0.014790 -0.426874 -0.037428
				CHANNELS 3 Zrotation Yrotation Xrotation
				JOINT ltoe
				{
					OFFSET 0.041054 -0.060286 0.122042
					CHANNELS 3 Zrotation Yrotation Xrotation
					End Site
					{
						OFFSET 0.000000 0.000000 0.000000
					}
				}
			}
		}
	}
	JOINT rhip
	{
		OFFSET -0.060310 -0.090513 -0.013543
		CHANNELS 3 Zrotation Yrotation Xrotation
		JOINT rknee
		{
			OFFSET -0.043257 -0.383688 -0.004843
			CHANNELS 3 Zrotation Yrotation Xrotation
			JOINT rankle
			{
				OFFSET 0.019056 -0.420046 -0.034562
				CHANNELS 3 Zrotation Yrotation Xrotation
				JOINT rtoe
				{
					OFFSET -0.034840 -0.062106 0.130323
					CHANNELS 3 Zrotation Yrotation Xrotation
					End Site
					{
						OFFSET 0.000000 0.000000 0.000000
					}
				}
			}
		}
	}
	JOINT lowerback
	{
		OFFSET 0.004439 0.124404 -0.038385
		CHANNELS 3 Zrotation Yrotation Xrotation
		JOINT upperback
		{
			OFFSET 0.004488 0.137956 0.026820
			CHANNELS 3 Zrotation Yrotation Xrotation
			JOINT chest
			{
				OFFSET -0.002265 0.056032 0.002855
				CHANNELS 3 Zrotation Yrotation Xrotation
				JOINT lowerneck
				{
					OFFSET -0.013390 0.211636 -0.033468
					CHANNELS 3 Zrotation Yrotation Xrotation
					JOINT upperneck
					{
						OFFSET 0.010113 0.088937 0.050410
						CHANNELS 3 Zrotation Yrotation Xrotation
						End Site
						{
							OFFSET 0.000000 0.000000 0.000000
						}
					}
				}
				JOINT lclavicle
				{
					OFFSET 0.071702 0.114000 -0.018898
					CHANNELS 3 Zrotation Yrotation Xrotation
					JOINT lshoulder
					{
						OFFSET 0.122921 0.045205 -0.019046
						CHANNELS 3 Zrotation Yrotation Xrotation
						JOINT lelbow
						{
							OFFSET 0.255332 -0.015649 -0.022946
							CHANNELS 3 Zrotation Yrotation Xrotation
							JOINT lwrist
							{
								OFFSET 0.265709 0.012698 -0.007375
								CHANNELS 3 Zrotation Yrotation Xrotation
								End Site
								{
									OFFSET 0.000000 0.000000 0.000000
								}
							}
						}
					}
				}
				JOINT rclavicle
				{
					OFFSET -0.082954 0.112472 -0.023707
					CHANNELS 3 Zrotation Yrotation Xrotation
					JOINT rshoulder
					{
						OFFSET -0.113228 0.046853 -0.008472
						CHANNELS 3 Zrotation Yrotation Xrotation
						JOINT relbow
						{
							OFFSET -0.260127 -0.014369 -0.031269
							CHANNELS 3 Zrotation Yrotation Xrotation
							JOINT rwrist
							{
								OFFSET -0.269108 0.006794 -0.006027
								CHANNELS 3 Zrotation Yrotation Xrotation
								End Site
								{
									OFFSET 0.000000 0.000000 0.000000
								}
							}
						}
					}
				}
			}
		}
	}
}
MOTION
Frames: 14
Frame Time: 0.033333
-1.129118 0.659580 0.550802 85.629742 -1.095657 49.094556 25.890829 7.568483 -44.573860 -9.924270 3.808661 94.306857 -4.064849 -1.630874 -19.233281 0.000000 -0.000000 0.000000 -20.643658 -11.100673 -51.656046 2.009482 -5.045505 97.230990 2.475322 3.135456 -13.092088 0.000000 -0.000000 0.000000 -2.923756 0.929850 55.128900 1.125649 -1.872416 8.218649 0.472517 -1.257951 -4.518007 -0.653359 3.194004 -14.120764 4.756351 -0.867709 6.069497 -32.558691 -20.745974 2.539717 -35.554030 -12.708868 0.815361 60.543914 -67.817188 -39.568361 5.906445 -20.039719 5.376296 34.237766 27.953186 8.631822 28.948647 21.322266 -0.480443 -39.469838 68.066483 -20.216901 22.164612 13.736826 20.198285 
-1.128727 0.658433 0.551748 85.383161 -0.945245 50.049990 26.900066 7.644311 -45.689594 -12.221479 3.154934 94.104748 -6.456772 -4.750189 -17.108484 0.000000 -0.000000 0.000000 -21.392663 -10.899402 -52.470100 0.920561 -5.630185 98.593172 0.477160 1.506493 -17.148742 0.000000 -0.000000 0.000000 -3.067212 1.343284 54.459950 1.439185 -2.157260 8.279893 0.443532 -0.618648 -3.688892 0.641032 5.384905 -13.589223 3.809535 -2.269303 4.689240 -29.493041 -22.183723 3.801563 -35.657877 -11.445897 2.193682 63.836378 -68.672993 -43.251679 10.233281 -21.241446 3.311766 32.318013 28.286149 8.219959 28.450989 19.839939 -0.512712 -41.003182 70.010621 -20.911273 21.186684 14.206701 17.967330 
-1.127359 0.657294 0.555964 85.115707 -1.161827 51.750102 27.804566 8.971127 -46.937434 -17.133246 1.657960 93.677407 -7.347634 -9.354975 -18.513133 0.000000 -0.000000 0.000000 -22.019106 -10.991921 -53.950285 0.563706 -4.045768 100.842365 -0.811798 -1.860754 -18.022761 0.000000 -0.000000 0.000000 -3.588415 2.035459 55.516957 1.480172 -1.974350 5.274847 0.911382 -0.352309 -2.268096 0.651302 5.523611 -13.003284 4.580826 -1.744195 2.382485 -26.255035 -20.705858 4.215722 -34.664605 -10.651008 1.925430 65.345844 -74.476392 -44.687532 12.804182 -21.445309 0.030185 28.865846 27.338769 6.930572 28.425789 17.972988 0.332989 -39.483905 74.468267 -19.195320 20.479243 14.836841 16.299518 
-1.124075 0.658853 0.560270 85.303888 -0.770474 54.609828 29.886046 10.891894 -49.332415 -18.568596 -0.294662 92.359934 -7.493063 -8.073211 -19.904541 0.000000 -0.000000 0.000000 -24.063060 -10.927575 -54.890041 1.835771 -0.701058 104.512794 -1.164907 -5.176235 -15.094766 0.000000 -0.000000 0.000000 -4.012866 1.787917 56.683783 1.514258 -1.629523 1.589915 1.597645 -0.148198 -0.674100 0.212745 4.821675 -12.105341 5.674577 0.300604 -0.456769 -20.813552 -19.277659 5.367380 -32.502696 -7.167643 1.579626 90.701963 -81.609621 -70.410770 16.893312 -21.113141 -8.346416 22.438415 25.823265 4.488848 28.394056 14.638039 1.528406 -37.175694 81.324730 -18.547613 19.724483 17.148543 11.050984 
-1.120902 0.660910 0.562067 85.680624 -0.555903 56.359921 31.167016 12.401286 -50.627092 -16.984407 -1.267215 90.709064 -6.527303 -5.353794 -20.601623 0.000000 -0.000000 0.000000 -26.008428 -11.207090 -54.290548 2.879237 1.934990 106.109443 -0.673502 -6.533737 -10.551411 0.000000 -0.000000 0.000000 -4.139426 1.189265 57.174786 1.205153 -1.267567 0.393818 2.025660 -0.214766 0.146360 -0.225555 3.280938 -12.440614 6.168167 2.245431 -1.796524 -18.647786 -17.721072 5.314672 -30.926250 -5.501257 0.681425 122.809355 -81.601963 -102.760352 19.147551 -20.311328 -11.955738 18.932509 24.495619 2.629378 27.982688 13.053474 2.021170 -43.126695 84.644875 -27.172036 21.969312 18.150675 5.938290 
-1.117072 0.664635 0.564213 86.524365 -0.080250 59.114319 32.438916 14.627397 -52.652844 -13.638595 -1.577646 87.556039 -5.543950 -2.598280 -19.555685 0.000000 -0.000000 0.000000 -28.896213 -11.710427 -52.076767 4.567691 5.301908 106.932850 2.044249 -7.332940 -6.522568 0.000000 -0.000000 0.000000 -3.730186 0.409120 58.262952 1.010812 -0.650592 -1.900609 2.647532 0.183344 1.080272 -1.117397 0.080840 -12.715360 6.972000 3.941898 -3.320953 -15.326106 -15.652499 4.512158 -33.750203 -6.861941 -1.484685 130.464579 -78.615574 -109.957449 19.989910 -18.424972 -17.468369 13.949649 22.490847 0.599838 30.377788 10.452824 1.688767 -73.368682 84.658700 -60.029074 27.630881 20.130174 -2.287714 
-1.111245 0.667362 0.564469 87.434362 -0.018595 62.629166 33.360859 17.522969 -54.577414 -10.267927 0.196515 83.745931 -6.081631 -1.502233 -17.117578 0.000000 -0.000000 0.000000 -31.455588 -12.830710 -48.825036 5.673706 8.193671 106.192921 3.881242 -5.377104 -10.918810 0.000000 -0.000000 0.000000 -2.563346 0.115914 57.470141 0.873723 -0.612688 -2.359205 2.943051 0.783417 0.948703 -2.594923 -1.456797 -12.837781 7.771391 3.388941 -4.581213 -12.798475 -15.702275 2.279185 -38.513089 -10.466437 -2.826914 112.481131 -77.815572 -92.154951 23.976280 -15.796735 -21.189609 11.339199 21.919708 0.700681 33.512242 10.041300 -0.144059 -69.101783 81.574132 -55.974979 23.004748 17.471118 -3.123995 
-1.105795 0.668620 0.564664 88.505219 0.267285 66.341122 33.577103 20.681240 -56.300612 -8.542222 2.720276 79.968213 -8.831520 -3.267337 -15.172925 0.000000 -0.000000 0.000000 -33.484146 -13.966503 -44.965723 4.368968 9.286928 103.089027 7.568269 0.256356 -21.587825 0.000000 -0.000000 0.000000 -1.123857 0.128621 57.386429 1.052379 -0.842871 -3.555017 3.093893 1.455785 0.201976 -3.484994 0.033054 -14.075432 7.068638 0.107411 -4.478042 -12.528218 -18.175136 0.039769 -41.310478 -16.358522 -3.375429 77.132480 -76.139354 -53.872038 24.016323 -16.937912 -19.078378 12.850752 23.409658 1.910449 33.525438 12.337166 -2.892919 -40.607603 76.656280 -25.493391 12.222360 18.400923 -1.091496 
-1.098862 0.669092 0.564099 89.546444 0.441717 69.883598 33.671791 23.769231 -57.205292 -8.691052 6.124675 76.620346 -10.995698 -5.165120 -13.728987 0.000000 -0.000000 0.000000 -34.444182 -16.064472 -42.610157 2.563845 8.458242 98.921453 5.935458 0.738977 -31.250951 0.000000 -0.000000 0.000000 0.174873 0.712869 57.827271 1.464560 -1.257749 -4.348222 3.663564 1.704265 -1.353302 -5.424639 0.780896 -16.916792 6.487749 -2.656003 -3.699198 -13.587023 -24.096331 -1.006586 -41.491698 -20.490501 -2.309850 48.956792 -68.837147 -26.756537 21.329639 -14.696740 -19.825091 17.335814 28.121040 4.327474 30.809704 15.280994 -5.699258 -29.402778 66.532282 -15.523497 7.197015 19.051840 3.246522 
-1.087821 0.671884 0.565796 90.832940 1.281200 73.444978 33.827080 26.186511 -58.329286 -9.773983 7.600776 72.836399 -12.726540 -6.775623 -2.105946 0.000000 -0.000000 0.000000 -34.173708 -17.890199 -44.394147 2.756421 7.463170 99.112602 4.875777 -0.322265 -30.395340 0.000000 -0.000000 0.000000 1.018464 0.807691 59.441406 2.173918 -1.179508 -3.014551 4.192901 1.751270 -5.148223 -7.948504 1.674770 -23.559700 5.877254 -4.651247 -1.875938 -20.342154 -33.566261 1.571899 -33.836690 -22.429488 -0.529700 33.005782 -58.346505 -19.611789 26.603667 -16.130617 -27.148313 28.460729 36.109881 12.219902 21.566169 17.050013 -7.468746 -27.103954 55.130519 -20.374003 -9.122610 22.302373 3.703972 
-1.075200 0.676569 0.571464 92.399796 1.966265 75.963415 33.496040 26.584131 -60.425152 -9.298365 8.760820 71.782487 -12.729653 -5.646591 -0.234688 0.000000 -0.000000 0.000000 -35.046424 -18.663105 -43.351996 2.966593 6.390077 97.984660 4.868465 0.153033 -30.864961 0.000000 -0.000000 0.000000 1.732801 1.314484 60.789049 2.635614 -1.925156 -1.242126 4.436309 1.609194 -8.283115 -7.767217 2.537022 -28.776483 5.889714 -5.599800 -3.020910 -23.457914 -39.692582 4.018174 -31.289301 -23.013312 0.379584 28.369052 -54.250609 -14.934273 31.964547 -19.089709 -25.146314 33.183115 40.208985 16.848282 20.349680 17.881658 -8.317679 -32.023313 53.276848 -28.253899 -25.117212 24.965562 -1.891829 
-1.061088 0.681921 0.578812 93.871469 2.022629 79.415823 32.516426 26.155437 -63.064342 -8.455819 10.263239 72.143864 -11.648806 -5.856818 -1.601276 0.000000 -0.000000 0.000000 -35.598872 -18.696889 -41.565285 2.209108 6.053403 95.061579 4.629163 -0.144734 -33.881526 0.000000 -0.000000 0.000000 1.697567 2.711503 60.859303 2.804028 -2.747295 -2.673209 4.643948 1.130722 -8.549535 -6.462861 2.920275 -31.815568 6.181723 -6.543587 -4.142079 -26.631940 -41.559689 6.281358 -34.052190 -26.545733 2.066348 29.799372 -52.474283 -20.229305 46.099282 -16.918911 -32.653467 35.474219 39.904375 18.331440 22.834026 20.492721 -8.107332 -38.219832 52.133706 -38.397626 -42.160734 22.795771 -8.823151 
-1.048987 0.689057 0.591606 95.441671 2.221284 82.646042 32.445356 24.158601 -64.733228 -7.138750 12.422679 71.758318 -10.637751 -5.086618 -2.918526 0.000000 -0.000000 0.000000 -35.245154 -17.437177 -39.960268 0.497716 5.389858 92.099108 5.309024 -1.703292 -34.620899 0.000000 -0.000000 0.000000 0.918405 3.581906 60.561631 3.112521 -3.273318 -3.064710 4.771576 0.940576 -8.527719 -5.734500 2.189265 -35.749141 6.454005 -7.780349 -3.854291 -30.358570 -40.520678 8.049490 -36.977129 -29.571787 2.478182 34.985099 -53.426422 -23.799170 47.187166 -18.358749 -31.234637 38.480946 38.592593 19.152892 22.910726 22.099721 -9.272481 -44.360496 50.325675 -42.110972 -37.759492 24.259619 -5.558285 
-1.038189 0.697218 0.609336 96.864360 2.327504 85.022018 31.908396 21.975911 -65.593615 -6.092857 13.577672 70.872229 -9.958271 -4.539987 -3.180555 0.000000 -0.000000 0.000000 -34.266491 -15.774502 -38.521910 -0.830664 5.809768 89.227981 5.941488 -2.934031 -32.577809 0.000000 -0.000000 0.000000 0.132050 4.282395 60.201031 3.244343 -4.059149 -1.322724 4.875298 0.316661 -9.448943 -4.556571 0.705135 -37.864286 6.735672 -8.212784 -5.072247 -32.721117 -40.349428 9.150193 -36.759858 -30.942222 2.316432 41.654203 -55.107677 -30.863114 48.272224 -19.164629 -29.776359 39.179457 38.888701 18.691007 22.771590 22.790104 -8.681656 -48.508790 49.758441 -45.811291 -32.963363 24.411053 -4.948323 
